<svg id="Capa_1" enable-background="new 0 0 512 512" height="512" viewBox="0 0 512 512" width="512" xmlns="http://www.w3.org/2000/svg"><g><path d="m0 386.676v-355.771c0-17.068 13.837-30.905 30.905-30.905h450.189c17.069 0 30.906 13.837 30.906 30.905v355.771z" fill="#eaf6ff"/><g><path d="m362.366 326.102h-212.734v-188.829c0-58.745 47.622-106.367 106.367-106.367 58.745 0 106.367 47.622 106.367 106.367z" fill="#e19974"/><path d="m255.999 30.905c-5.249 0-10.407.387-15.453 1.121 51.421 7.485 90.915 51.75 90.915 105.246v188.829h30.905v-188.828c0-58.745-47.622-106.368-106.367-106.368z" fill="#dc8758"/><path d="m286.635 266.226v-43.186h-61.271v43.186c0 9.735-6.814 18.142-16.339 20.157l-44.737 9.466c-28.573 6.046-49.016 31.266-49.016 60.472v30.355h281.454v-30.355c0-29.206-20.442-54.426-49.016-60.472l-44.737-9.466c-9.524-2.015-16.338-10.422-16.338-20.157z" fill="#aee49e"/><g><path d="m292.307 306.118 24.498 5.183c28.573 6.046 49.016 31.266 49.016 60.472v14.903h30.905v-30.356c0-29.206-20.442-54.426-49.016-60.472l-37.387-7.911z" fill="#8bd8a5"/></g><path d="m201.676 287.938c11.645 17.62 31.622 29.251 54.324 29.251s42.679-11.631 54.324-29.251l-22.803-1.555c-9.525-2.015-16.339-10.422-16.339-20.157v-43.186h-45.818v43.186c0 9.735-6.814 18.142-16.339 20.157z" fill="#ffcebf"/><path d="m286.635 266.225v-43.185h-30.905v58.638c0 9.735 6.814 18.142 16.339 20.157l20.239 4.282c7.137-4.81 13.269-10.996 18.016-18.18l-7.35-1.555c-9.437-1.993-16.351-10.413-16.339-20.157z" fill="#ffb09e"/><g><g><g><path d="m334.276 128.931c-6.699-1.931-17.721-6.033-28.841-15.028-9.759-7.893-15.895-16.563-19.575-22.947-1.118-1.939-3.718-2.379-5.399-.906-7.405 6.488-16.704 13.42-28.075 19.626-29.731 16.229-58.1 19.026-74.665 19.254v50.161c0 32.523 19.636 60.438 47.642 72.42 9.409 4.026 31.292 1.918 31.292 1.918 10.808 0 20.447 2.134 29.812-1.847 28.095-11.943 47.808-39.903 47.808-72.491v-50.16z" fill="#ffcebf"/><path d="m305.435 113.904c-9.781-7.911-15.922-16.601-19.599-22.989-1.11-1.928-3.698-2.332-5.372-.865-4.845 4.245-10.518 8.678-17.035 12.976 3.036 3.597 6.696 7.317 11.101 10.879 7.543 6.101 15.041 9.951 21.175 12.399 4.637 1.851 7.667 6.341 7.667 11.333v41.456c.203 5.168.619 29.745-17.976 50.162-23.31 25.593-56.446 22.639-60.03 22.257 5.575 2.358 13.775 5.098 24.002 5.973 0 0 3.37.281 6.632.281 43.231 0 78.277-35.223 78.277-78.674v-50.161c-6.7-1.931-17.722-6.033-28.842-15.027z" fill="#ffb09e"/><g><g><path d="m218.232 174.709c-4.268 0-7.726-3.459-7.726-7.726v-15.183c0-4.268 3.459-7.726 7.726-7.726s7.726 3.459 7.726 7.726v15.183c.001 4.268-3.458 7.726-7.726 7.726z" fill="#3f6e90"/></g><g><path d="m293.766 174.709c-4.268 0-7.726-3.459-7.726-7.726v-15.183c0-4.268 3.459-7.726 7.726-7.726s7.726 3.459 7.726 7.726v15.183c0 4.268-3.459 7.726-7.726 7.726z" fill="#3f6e90"/></g></g><g><path d="m256.001 230.78c-.138 0-.275-.001-.412-.002-6.417-.068-12.788-1.746-18.426-4.853-3.737-2.059-5.097-6.759-3.037-10.496 2.058-3.736 6.756-5.098 10.496-3.037 2.377 1.31 6.238 2.882 11.13 2.934.082.001.166.002.248.002 4.99 0 8.934-1.591 11.377-2.937 3.738-2.056 8.439-.698 10.496 3.039 2.058 3.738.698 8.437-3.039 10.496-4.041 2.225-10.564 4.854-18.833 4.854z" fill="#ffb09e"/></g><path d="m343.844 166.07h-9.568v-37.139h9.568c10.23 0 18.522 8.293 18.522 18.522v.094c0 10.23-8.292 18.523-18.522 18.523z" fill="#ffcebf"/><path d="m168.154 166.07h9.568v-37.139h-9.568c-10.23 0-18.522 8.293-18.522 18.522v.094c0 10.23 8.292 18.523 18.522 18.523z" fill="#ffb09e"/></g></g></g></g><path d="m512 386.676v-355.771c0-17.068-13.837-30.905-30.905-30.905h-30.905c17.069 0 30.905 13.837 30.905 30.905v355.771z" fill="#d8ecfe"/><path d="m30.905 512h450.189c17.069 0 30.906-13.837 30.906-30.905v-94.419h-512v94.419c0 17.068 13.837 30.905 30.905 30.905z" fill="#3f6e90"/><path d="m481.095 386.676v94.419c0 17.069-13.837 30.905-30.905 30.905h30.905c17.068 0 30.905-13.837 30.905-30.905v-94.419z" fill="#355f7f"/><g><path d="m330.688 481.095h-149.376c-11.379 0-20.604-9.225-20.604-20.604v-67.992c0-11.379 9.225-20.604 20.604-20.604h40.368c2.186 0 4.282-.868 5.828-2.414l22.664-22.664c3.218-3.219 8.437-3.219 11.655 0l22.664 22.664c1.546 1.546 3.642 2.414 5.828 2.414h40.37c11.379 0 20.604 9.225 20.604 20.604v67.992c-.001 11.379-9.226 20.604-20.605 20.604z" fill="#eaf6ff"/><g><path d="m330.688 371.895h-30.905c11.379 0 20.604 9.224 20.604 20.604v67.992c0 11.379-9.225 20.604-20.604 20.604h30.905c11.379 0 20.604-9.224 20.604-20.604v-67.992c0-11.379-9.225-20.604-20.604-20.604z" fill="#d8ecfe"/></g><path d="m207.435 481.095h97.129c-5.339-21.87-25.05-38.104-48.564-38.104-23.515-.001-43.226 16.234-48.565 38.104z" fill="#aee49e"/><path d="m255.999 442.99c-5.395 0-10.586.864-15.453 2.445 16.346 5.31 28.997 18.807 33.112 35.659h30.905c-5.339-21.869-25.05-38.104-48.564-38.104z" fill="#8bd8a5"/><path d="m255.999 453.519c-14.569 0-26.379-11.81-26.379-26.379v-10.061c0-14.569 11.81-26.379 26.379-26.379 14.569 0 26.379 11.81 26.379 26.379v10.061c0 14.568-11.81 26.379-26.379 26.379z" fill="#ffcebf"/><path d="m255.999 390.7c-5.133 0-9.92 1.471-13.972 4.008 7.449 4.662 12.407 12.936 12.407 22.371v10.061c0 9.436-4.958 17.709-12.407 22.371 4.052 2.536 8.839 4.008 13.972 4.008 14.569 0 26.379-11.81 26.379-26.379v-10.061c0-14.569-11.81-26.379-26.379-26.379z" fill="#ffb09e"/></g></g></svg>